<svg width="552" height="74" viewBox="0 0 552 74" fill="none" xmlns="http://www.w3.org/2000/svg">
<g clip-path="url(#clip0_760_15)">
<path d="M88.1806 35.7999C89.2006 32.5999 90.6506 29.87 92.5106 27.59C94.3806 25.32 96.5906 23.51 99.1406 22.19C101.691 20.86 104.401 20.2 107.251 20.2C111.401 20.2 114.931 21.44 117.861 23.92C120.781 26.4 123.021 29.62 124.601 33.56H125.621V20.7H140.211V71.6999H125.621V58.84H124.601C123.041 62.79 120.791 66 117.861 68.48C114.941 70.96 111.401 72.1999 107.251 72.1999C104.391 72.1999 101.711 71.5399 99.1906 70.2099C96.6706 68.8799 94.4706 67.0799 92.5606 64.8099C90.6606 62.5399 89.1906 59.7899 88.1706 56.5999C87.1506 53.3999 86.6406 49.93 86.6406 46.2C86.6406 42.47 87.1506 38.9899 88.1706 35.7999H88.1806ZM102.511 51.4599C103.091 53.0599 103.911 54.4499 104.961 55.6399C106.021 56.8299 107.271 57.77 108.741 58.45C110.201 59.13 111.781 59.47 113.481 59.47C115.181 59.47 116.851 59.13 118.271 58.45C119.701 57.77 120.921 56.85 121.941 55.7C122.961 54.54 123.791 53.16 124.441 51.57C125.091 49.97 125.411 48.1899 125.411 46.2099C125.411 44.2299 125.091 42.4599 124.441 40.8499C123.791 39.2499 122.961 37.88 121.941 36.72C120.921 35.56 119.701 34.65 118.271 33.97C116.841 33.29 115.241 32.95 113.481 32.95C111.721 32.95 110.201 33.29 108.741 33.97C107.281 34.65 106.021 35.5899 104.961 36.7799C103.901 37.9699 103.091 39.3599 102.511 40.9599C101.931 42.5599 101.641 44.31 101.641 46.22C101.641 48.13 101.931 49.8699 102.511 51.4799V51.4599Z" fill="black" style="fill:black;fill-opacity:1;"/>
<path d="M148.16 0H163.16V71.71H148.16V0Z" fill="black" style="fill:black;fill-opacity:1;"/>
<path d="M171.11 20.7099H185.59V33.57H186.92C188.08 29.6899 190.16 26.53 193.19 24.08C196.22 21.63 200.45 20.34 205.89 20.2V36.22H201.3C198.72 36.22 196.47 36.5299 194.57 37.1399C192.67 37.7499 191.09 38.69 189.83 39.95C188.57 41.21 187.63 42.8199 187.02 44.7999C186.41 46.7699 186.1 49.2199 186.1 52.1399V71.72H171.1V20.7099H171.11Z" fill="black" style="fill:black;fill-opacity:1;"/>
<path d="M211.631 20.7099H226.521V47.33C226.521 51.28 227.281 54.24 228.821 56.2C230.351 58.17 232.571 59.16 235.501 59.16C236.861 59.16 238.171 58.89 239.431 58.34C240.691 57.8 241.841 56.9 242.901 55.63C243.961 54.37 244.821 52.69 245.501 50.58C246.181 48.48 246.521 45.82 246.521 42.63V20.7H261.621V71.6999H247.031V58.95H245.701C245.091 60.92 244.271 62.7299 243.251 64.3499C242.231 65.9799 240.991 67.39 239.531 68.58C238.071 69.77 236.401 70.7099 234.531 71.3899C232.661 72.0699 230.671 72.41 228.561 72.41C226.041 72.41 223.751 72 221.681 71.18C219.611 70.36 217.841 69.05 216.381 67.25C214.921 65.45 213.761 63.1499 212.911 60.3699C212.061 57.5799 211.641 54.2499 211.641 50.3699V20.7L211.631 20.7099Z" fill="black" style="fill:black;fill-opacity:1;"/>
<path d="M282.44 54.7699C282.71 57.2199 283.68 59.0599 285.35 60.2799C287.01 61.5099 289.55 62.1099 292.95 62.1099C294.04 62.1099 295.05 62.0099 296.01 61.7999C296.96 61.5999 297.79 61.3099 298.51 60.9299C299.23 60.5599 299.81 60.0599 300.25 59.4499C300.69 58.8399 300.91 58.1199 300.91 57.3099C300.91 56.4199 300.72 55.7599 300.35 55.3199C299.97 54.8799 299.48 54.4699 298.87 54.0899C298.26 53.7199 297.6 53.4299 296.88 53.2199C296.16 53.0099 295.33 52.8099 294.38 52.6099L285.2 51.0799C283.23 50.7399 281.25 50.2299 279.28 49.5499C277.31 48.8699 275.54 47.9699 273.98 46.8399C272.42 45.7099 271.14 44.2599 270.16 42.4499C269.17 40.6499 268.68 38.4899 268.68 35.9799C268.68 32.7799 269.34 30.0999 270.67 27.9299C272 25.7599 273.73 24.0199 275.87 22.7299C278.01 21.4399 280.41 20.5199 283.06 19.9799C285.71 19.4299 288.39 19.1599 291.11 19.1599C295.4 19.1599 299 19.6499 301.92 20.6399C304.84 21.6299 307.24 22.9399 309.11 24.5699C310.98 26.1999 312.39 28.1099 313.34 30.2799C314.29 32.4499 314.94 34.7299 315.28 37.1199H300.08C299.88 35.0199 299.06 33.3699 297.63 32.1699C296.21 30.9799 294.02 30.3899 291.1 30.3899C290.08 30.3899 289.14 30.4599 288.29 30.5899C287.44 30.7299 286.67 30.9999 285.99 31.4099C285.31 31.8199 284.76 32.3299 284.36 32.9399C283.95 33.5499 283.75 34.2699 283.75 35.0799C283.75 35.6899 283.9 36.2699 284.21 36.8099C284.52 37.3599 284.93 37.7799 285.44 38.0799C285.95 38.3899 286.54 38.6399 287.23 38.8399C287.91 39.0399 288.66 39.2499 289.47 39.4499L299.06 41.1799C301.1 41.5199 303.12 42.0099 305.13 42.6599C307.13 43.3099 308.95 44.2199 310.59 45.4099C312.23 46.5999 313.5 48.0599 314.41 49.7999C315.32 51.5399 315.79 53.6599 315.79 56.1699C315.79 59.1599 315.2 61.7499 314.01 63.9199C312.82 66.0899 311.19 67.8799 309.12 69.2799C307.05 70.6699 304.63 71.7099 301.88 72.3899C299.13 73.0699 296.15 73.4099 292.95 73.4099C288.73 73.4099 285.08 72.9199 281.98 71.9299C278.88 70.9399 276.3 69.5999 274.23 67.8999C272.16 66.1999 270.56 64.2199 269.44 61.9299C268.31 59.6599 267.62 57.2599 267.35 54.7399H282.45V54.7699H282.44Z" fill="black" style="fill:black;fill-opacity:1;"/>
<path d="M30.37 58.66L33.95 20.7H51.29L54.87 58.66L56.88 59.0499C58.8 54.5599 65.1 40.1799 66.43 20.7099H85.2L71.12 71.7099H46.68L43.17 46.2099H42.11L38.6 71.7099H14.13L0 20.7099H18.81C20.14 40.1899 26.43 54.5599 28.36 59.0499L30.37 58.66Z" fill="black" style="fill:black;fill-opacity:1;"/>
<path d="M333.23 4.18994H355.67C361.45 4.18994 366.55 5.10994 370.97 6.93994C375.39 8.77994 379.11 11.2399 382.14 14.3299C385.16 17.4199 387.46 21.0099 389.02 25.0899C390.58 29.1699 391.37 33.4499 391.37 37.9399C391.37 42.4299 390.59 46.8999 389.02 50.9399C387.46 54.9899 385.16 58.5599 382.14 61.6499C379.11 64.7399 375.39 67.1899 370.97 68.9899C366.55 70.7899 361.45 71.6899 355.67 71.6899H333.23V4.18994ZM355.15 65.6799C360.05 65.6799 364.34 64.9499 368.05 63.4899C371.76 62.0299 374.85 60.0199 377.33 57.4699C379.81 54.9199 381.68 51.9799 382.94 48.6499C384.2 45.3199 384.83 41.7499 384.83 37.9399C384.83 34.1299 384.2 30.7299 382.94 27.3299C381.68 23.9299 379.81 20.9699 377.33 18.4599C374.85 15.9499 371.75 13.9399 368.05 12.4399C364.34 10.9499 360.05 10.1999 355.15 10.1999H339.75V65.6799H355.15Z" fill="#231F20" style="fill:#231F20;fill:color(display-p3 0.1373 0.1216 0.1255);fill-opacity:1;"/>
<path d="M396.95 35.65C398.24 32.42 400.04 29.6 402.35 27.19C404.66 24.78 407.41 22.89 410.61 21.53C413.8 20.17 417.31 19.49 421.11 19.49C424.91 19.49 428.42 20.17 431.61 21.53C434.8 22.89 437.56 24.78 439.87 27.19C442.18 29.6 443.98 32.44 445.27 35.71C446.56 38.97 447.21 42.51 447.21 46.32C447.21 50.13 446.56 53.55 445.27 56.77C443.98 60 442.18 62.82 439.87 65.23C437.56 67.64 434.8 69.53 431.61 70.89C428.41 72.25 424.91 72.93 421.11 72.93C417.31 72.93 413.8 72.25 410.61 70.89C407.41 69.53 404.66 67.64 402.35 65.23C400.04 62.82 398.24 60 396.95 56.77C395.66 53.54 395.01 50.02 395.01 46.22C395.01 42.42 395.66 38.89 396.95 35.67V35.65ZM402.81 54.51C403.79 57.06 405.17 59.27 406.94 61.14C408.71 63.01 410.8 64.47 413.21 65.52C415.62 66.57 418.26 67.1 421.11 67.1C423.96 67.1 426.6 66.57 429.01 65.52C431.42 64.47 433.51 63.01 435.28 61.14C437.05 59.27 438.42 57.06 439.41 54.51C440.39 51.96 440.89 49.19 440.89 46.2C440.89 43.21 440.4 40.44 439.41 37.89C438.42 35.34 437.05 33.13 435.28 31.26C433.51 29.39 431.42 27.93 429.01 26.88C426.6 25.83 423.96 25.3 421.11 25.3C418.26 25.3 415.62 25.83 413.21 26.88C410.8 27.93 408.71 29.4 406.94 31.26C405.17 33.13 403.79 35.34 402.81 37.89C401.82 40.44 401.33 43.21 401.33 46.2C401.33 49.19 401.82 51.96 402.81 54.51Z" fill="#231F20" style="fill:#231F20;fill:color(display-p3 0.1373 0.1216 0.1255);fill-opacity:1;"/>
<path d="M488.881 63.18C485.791 65.8 481.891 67.11 477.201 67.11C474.481 67.11 471.951 66.58 469.601 65.53C467.251 64.48 465.231 63.02 463.531 61.15C461.831 59.28 460.501 57.07 459.551 54.52C458.601 51.97 458.121 49.2 458.121 46.21C458.121 43.22 458.591 40.45 459.551 37.9C460.501 35.35 461.831 33.14 463.531 31.27C465.231 29.4 467.251 27.94 469.601 26.89C471.951 25.84 474.481 25.31 477.201 25.31C481.891 25.31 485.801 26.6 488.931 29.19C491.451 31.27 493.311 34.14 494.551 37.76H501.121C500.531 35.64 499.771 33.66 498.821 31.85C497.461 29.27 495.741 27.06 493.671 25.22C491.591 23.38 489.171 21.97 486.381 20.99C483.591 20.01 480.531 19.51 477.201 19.51C473.461 19.51 470.041 20.19 466.951 21.55C463.861 22.91 461.191 24.8 458.941 27.21C456.701 29.62 454.951 32.45 453.691 35.67C452.431 38.9 451.801 42.42 451.801 46.22C451.801 50.02 452.431 53.55 453.691 56.77C454.951 60 456.701 62.82 458.941 65.23C461.181 67.64 463.851 69.53 466.951 70.89C470.041 72.25 473.461 72.93 477.201 72.93C480.531 72.93 483.591 72.44 486.381 71.45C489.171 70.47 491.601 69.05 493.671 67.22C495.741 65.38 497.461 63.18 498.821 60.59C499.751 58.83 500.481 56.92 501.061 54.88H494.371C493.141 58.35 491.311 61.13 488.871 63.19L488.881 63.18Z" fill="#231F20" style="fill:#231F20;fill:color(display-p3 0.1373 0.1216 0.1255);fill-opacity:1;"/>
<path d="M512.47 54.87C512.81 58.95 514.44 62.11 517.36 64.35C520.28 66.59 524.7 67.72 530.62 67.72C532.46 67.72 534.22 67.52 535.92 67.11C537.62 66.7 539.12 66.11 540.41 65.32C541.7 64.54 542.76 63.55 543.57 62.36C544.39 61.17 544.79 59.73 544.79 58.03C544.79 56.6 544.47 55.4 543.82 54.41C543.17 53.42 542.34 52.62 541.32 52.01C540.3 51.4 539.11 50.91 537.75 50.53C536.39 50.16 534.96 49.83 533.47 49.56L523.07 47.72C521.24 47.38 519.41 46.92 517.61 46.34C515.81 45.76 514.19 44.96 512.77 43.94C511.34 42.92 510.2 41.65 509.35 40.12C508.5 38.59 508.08 36.7 508.08 34.46C508.08 32.22 508.57 30.07 509.56 28.24C510.54 26.4 511.94 24.82 513.74 23.5C515.54 22.17 517.65 21.17 520.06 20.49C522.47 19.81 525.14 19.47 528.06 19.47C531.8 19.47 535.03 19.91 537.75 20.8C540.47 21.68 542.73 22.91 544.53 24.47C546.33 26.03 547.69 27.89 548.61 30.03C549.53 32.17 550.12 34.47 550.4 36.91H544.08C543.67 33.17 542.23 30.2 539.75 27.99C537.27 25.78 533.38 24.68 528.07 24.68C526.37 24.68 524.69 24.87 523.02 25.24C521.35 25.61 519.89 26.18 518.64 26.92C517.38 27.67 516.36 28.62 515.58 29.78C514.8 30.94 514.41 32.3 514.41 33.86C514.41 35.29 514.7 36.48 515.28 37.43C515.86 38.38 516.62 39.15 517.57 39.72C518.52 40.3 519.64 40.77 520.94 41.15C522.23 41.52 523.56 41.85 524.92 42.12L535.32 43.95C537.15 44.29 539.01 44.73 540.88 45.28C542.75 45.82 544.45 46.61 545.98 47.63C547.51 48.65 548.75 49.96 549.7 51.56C550.65 53.16 551.13 55.15 551.13 57.53C551.13 59.91 550.6 62.17 549.55 64.11C548.5 66.05 547.05 67.66 545.22 68.95C543.38 70.24 541.23 71.23 538.74 71.91C536.26 72.59 533.56 72.93 530.63 72.93C526.82 72.93 523.46 72.54 520.53 71.76C517.61 70.98 515.11 69.82 513.03 68.29C510.96 66.76 509.34 64.87 508.19 62.63C507.03 60.39 506.35 57.8 506.15 54.88H512.47V54.87Z" fill="#231F20" style="fill:#231F20;fill:color(display-p3 0.1373 0.1216 0.1255);fill-opacity:1;"/>
</g>
<defs>
<clipPath id="clip0_760_15">
<rect width="551.12" height="73.41" fill="white" style="fill:white;fill-opacity:1;"/>
</clipPath>
</defs>
</svg>
